<?xml version="1.0" standalone="no"?>
<!DOCTYPE svg PUBLIC "-//W3C//DTD SVG 20010904//EN"
 "http://www.w3.org/TR/2001/REC-SVG-20010904/DTD/svg10.dtd">
<svg version="1.0" xmlns="http://www.w3.org/2000/svg"
 width="512.000000pt" height="512.000000pt" viewBox="0 0 512.000000 512.000000"
 preserveAspectRatio="xMidYMid meet">
<metadata>
Created by potrace 1.11, written by Peter Selinger 2001-2013
</metadata>
<g transform="translate(0.000000,512.000000) scale(0.100000,-0.100000)"
fill="#000000" stroke="none">
<path d="M0 2560 l0 -2560 2560 0 2560 0 0 2560 0 2560 -2560 0 -2560 0 0
-2560z m1585 1470 c464 -54 784 -340 812 -728 l6 -82 -314 2 -314 3 -7 59
c-16 126 -96 220 -220 257 -102 31 -247 24 -336 -16 -114 -51 -183 -158 -167
-256 22 -127 154 -213 520 -339 429 -147 654 -304 766 -535 55 -113 72 -202
66 -350 -8 -233 -91 -390 -274 -521 -208 -150 -549 -214 -896 -169 -402 53
-706 251 -825 538 -36 86 -62 205 -62 282 l0 55 314 0 313 0 7 -70 c21 -233
160 -340 441 -340 182 0 281 44 331 146 23 48 26 63 22 127 -6 87 -31 141 -90
192 -56 48 -190 111 -358 170 -363 126 -537 217 -684 355 -152 144 -217 291
-217 493 1 164 42 281 142 406 192 237 610 368 1024 321z m2268 -59 c527 -118
870 -517 928 -1081 14 -140 7 -400 -16 -525 -22 -121 -65 -248 -125 -364 -159
-306 -427 -510 -785 -593 -84 -20 -125 -22 -607 -25 l-518 -4 0 1311 0 1311
513 -4 c482 -4 518 -5 610 -26z"/>
<path d="M3360 2690 l0 -820 158 0 c109 0 176 5 217 15 190 50 317 195 377
430 21 83 23 111 23 375 0 264 -2 292 -23 375 -60 237 -187 379 -387 430 -40
10 -107 15 -212 15 l-153 0 0 -820z"/>
</g>
</svg>
